<svg width="21" height="26" viewBox="0 0 21 26" fill="none" xmlns="http://www.w3.org/2000/svg">
<path d="M9.76758 10.9452H15.1382L9.76758 6.91724V10.9452Z" fill="#01E800"/>
<path d="M1.71094 25.6914H14.8945C15.2994 25.6914 15.627 25.3638 15.627 24.959V12.4102H9.03516C8.63032 12.4102 8.30273 12.0826 8.30273 11.6777V6.55078H1.71094C1.3061 6.55078 0.978516 6.87837 0.978516 7.2832V24.959C0.978516 25.3638 1.3061 25.6914 1.71094 25.6914Z" fill="#01E800"/>
<path d="M20.0215 19.0508V6.55078H13.4297C13.0249 6.55078 12.6973 6.22319 12.6973 5.81836V0.691406H6.10547C5.70063 0.691406 5.37305 1.01899 5.37305 1.42383V5.08594H9.03516C9.50796 5.08594 9.97642 5.24258 10.3541 5.52651L16.2127 9.92031C16.7628 10.3316 17.0918 10.989 17.0918 11.6777V19.7832H19.2891C19.6939 19.7832 20.0215 19.4556 20.0215 19.0508Z" fill="#01E800"/>
<path d="M14.1621 5.08584H19.5327L14.1621 1.05786V5.08584Z" fill="#01E800"/>
</svg>
